#!OML:ASF F:\VICON\USERDATA\INSTALL\rory3\rory3.ASF
:FULLY-SPECIFIED
:DEGREES
2878
root -1.01547 17.6805 3.66374 0.449057 31.7436 -0.116119
lowerback 3.60279 -1.52631 -2.37992
upperback -1.64175 -2.11868 1.16211
thorax -3.58241 -0.983785 2.67222
lowerneck -18.7085 0.303204 -9.74689
upperneck 27.7059 2.69755 3.55595
head 12.0632 0.69426 3.4305
rclavicle 1.32285e-014 5.36719e-015
rhumerus 4.41232 -60.7815 1.01536
rradius 92.5239
rwrist -15.1515
rhand -45.687 7.13456
rfingers 7.12502
rthumb -18.4446 -22.011
lclavicle 1.32285e-014 5.36719e-015
lhumerus -26.5147 60.3268 -9.13617
lradius 77.549
lwrist 33.48
lhand -21.7984 17.8842
lfingers 7.12502
lthumb 4.60341 47.8142
rfemur -20.8658 -4.02186 27.1173
rtibia 31.3968
rfoot -11.6996 -7.86223
rtoes 17.5439
lfemur 8.01065 -2.39605 -16.3019
ltibia 31.2674
lfoot 27.8799 -26.2838
ltoes -6.3274
2879
root -0.984182 17.6846 3.71904 0.408983 31.8154 -0.146607
lowerback 3.62206 -1.6269 -2.35025
upperback -1.48959 -2.24809 1.25503
thorax -3.42509 -1.05237 2.75662
lowerneck -18.4524 -0.00138013 -9.93948
upperneck 27.8439 2.19947 3.86807
head 12.0978 0.487552 3.50812
rclavicle 3.12403e-014 1.19271e-015
rhumerus 4.01113 -60.4095 0.475084
rradius 91.9077
rwrist -15.0987
rhand -45.1034 7.10636
rfingers 7.12502
rthumb -17.8831 -22.0914
lclavicle 3.12403e-014 1.19271e-015
lhumerus -27.6978 59.7872 -9.06819
lradius 77.8409
lwrist 32.2518
lhand -22.3701 17.4119
lfingers 7.12502
lthumb 4.05143 47.3531
rfemur -20.5175 -4.36019 27.1516
rtibia 31.2424
rfoot -11.7551 -7.57007
rtoes 17.2129
lfemur 7.19367 -2.59173 -16.062
ltibia 32.6729
lfoot 28.897 -26.0357
ltoes -3.98751
2880
root -0.955739 17.6879 3.77183 0.384942 31.8588 -0.135797
lowerback 3.4869 -1.70934 -2.44338
upperback -1.07955 -2.35358 1.41287
thorax -2.90825 -1.11561 2.96292
lowerneck -18.7702 -0.369979 -10.2901
upperneck 28.0131 1.71473 4.21252
head 12.2634 0.271709 3.63798
rclavicle 5.45113e-014 -1.98785e-016
rhumerus 3.79307 -60.4994 -0.18439
rradius 91.2615
rwrist -15.1334
rhand -44.1772 7.18945
rfingers 7.12502
rthumb -16.9917 -22.0874
lclavicle 5.45113e-014 -1.98785e-016
lhumerus -28.8248 59.6774 -8.73616
lradius 77.9892
lwrist 30.8778
lhand -22.9184 17.3266
lfingers 7.12502
lthumb 3.52187 47.2773
rfemur -20.1861 -4.64965 27.1522
rtibia 31.0887
rfoot -11.7975 -7.29303
rtoes 17.2385
lfemur 6.28373 -2.6776 -15.8635
ltibia 34.1903
lfoot 28.7369 -26.4545
ltoes -2.46061
2881
root -0.930614 17.6911 3.82195 0.247416 31.7739 -0.382012
lowerback 3.3079 -1.73591 -2.37161
upperback -0.70464 -2.37464 1.66171
thorax -2.41191 -1.1388 3.16447
lowerneck -18.6779 -0.743597 -10.5853
upperneck 27.9945 1.19553 4.41981
head 12.2811 0.0351619 3.68697
rclavicle -7.40752e-014 7.95139e-016
rhumerus 3.51154 -60.3749 -0.807079
rradius 90.5643
rwrist -15.094
rhand -44.2214 7.16747
rfingers 7.12502
rthumb -17.0343 -22.1057
lclavicle -7.40752e-014 7.95139e-016
lhumerus -29.8817 59.5405 -8.17973
lradius 78.0951
lwrist 29.7135
lhand -23.1476 17.4257
lfingers 7.12502
lthumb 3.30053 47.3799
rfemur -19.8912 -4.62997 27.3876
rtibia 30.9361
rfoot -11.9053 -7.17443
rtoes 17.4904
lfemur 5.2972 -2.59757 -15.41
ltibia 35.7832
lfoot 27.3524 -27.702
ltoes -3.48117
2882
root -0.905181 17.6939 3.87681 -0.0157448 31.554 -0.736044
lowerback 3.40343 -1.73978 -2.12889
upperback -0.659518 -2.36655 1.82123
thorax -2.42261 -1.13731 3.19493
lowerneck -17.8431 -0.987654 -10.7772
upperneck 27.9912 0.696376 4.77144
head 12.1504 -0.162985 3.76834
rclavicle 9.63174e-015 3.97569e-015
rhumerus 2.74344 -59.5797 -1.11111
rradius 89.7987
rwrist -14.9279
rhand -44.8568 6.78855
rfingers 7.12502
rthumb -17.6458 -22.4307
lclavicle 9.63174e-015 3.97569e-015
lhumerus -30.7875 58.9416 -7.69317
lradius 78.1447
lwrist 29.3682
lhand -22.954 17.4038
lfingers 7.12502
lthumb 3.48751 47.355
rfemur -19.4894 -4.54039 27.7434
rtibia 30.7659
rfoot -12.0013 -7.05677
rtoes 17.3393
lfemur 4.45337 -2.29578 -14.8001
ltibia 37.429
lfoot 24.9359 -28.9073
ltoes -6.49422
2883
root -0.882392 17.698 3.9299 -0.17769 31.2833 -0.836629
lowerback 3.79187 -1.71312 -1.99682
upperback -0.741261 -2.32962 1.8284
thorax -2.73267 -1.11446 3.14316
lowerneck -17.2671 -1.25963 -11.0316
upperneck 28.2722 0.140358 5.34666
head 12.1919 -0.373598 3.95391
rclavicle -5.03112e-014 7.15625e-015
rhumerus 1.67441 -58.6462 -1.30116
rradius 89.0632
rwrist -15.0589
rhand -44.6351 6.17663
rfingers 7.12502
rthumb -17.4325 -23.0617
lclavicle -5.03112e-014 7.15625e-015
lhumerus -31.3616 58.0459 -7.09091
lradius 78.0031
lwrist 29.1518
lhand -22.9136 17.7524
lfingers 7.12502
lthumb 3.52651 47.7029
rfemur -19.0501 -4.4367 27.863
rtibia 30.5819
rfoot -12.0366 -6.89431
rtoes 17.3981
lfemur 3.65889 -1.80952 -14.3924
ltibia 39.0697
lfoot 21.8193 -29.7766
ltoes -10.9115
2884
root -0.861935 17.7022 3.97405 -0.213236 31.0834 -0.781063
lowerback 4.1005 -1.69551 -2.0013
upperback -0.674918 -2.30972 1.84873
thorax -2.83815 -1.10315 3.17572
lowerneck -16.9376 -1.60224 -11.288
upperneck 28.3722 -0.447572 5.77164
head 12.2231 -0.614164 4.07506
rclavicle -1.72135e-014 1.59028e-014
rhumerus 0.946059 -57.9156 -1.80341
rradius 88.2689
rwrist -15.2179
rhand -44.3658 5.9906
rfingers 7.12502
rthumb -17.1733 -23.2705
lclavicle -1.72135e-014 1.59028e-014
lhumerus -31.8963 57.3006 -6.24394
lradius 77.7661
lwrist 28.7813
lhand -23.1599 18.5096
lfingers 7.12502
lthumb 3.28867 48.464
rfemur -18.6851 -4.40585 27.8307
rtibia 30.3832
rfoot -11.9697 -6.75439
rtoes 17.4286
lfemur 2.7779 -1.43109 -14.1789
ltibia 40.63
lfoot 18.3478 -29.9726
ltoes -15.0338
2885
root -0.841631 17.7091 4.01709 -0.227018 30.8054 -0.749557
lowerback 4.23953 -1.6613 -2.05111
upperback -0.484907 -2.26759 1.88873
thorax -2.71965 -1.08516 3.2431
lowerneck -16.585 -1.90281 -11.2158
upperneck 28.2434 -0.982514 5.87528
head 12.1549 -0.83252 4.01509
rclavicle -4.48819e-014 -1.07344e-014
rhumerus 0.289554 -57.3498 -2.34366
rradius 87.383
rwrist -15.3129
rhand -44.2744 6.01915
rfingers 7.12502
rthumb -17.0854 -23.2496
lclavicle -4.48819e-014 -1.07344e-014
lhumerus -32.4341 56.8655 -5.26294
lradius 77.4845
lwrist 28.8067
lhand -23.0066 19.096
lfingers 7.12502
lthumb 3.43669 49.048
rfemur -18.3713 -4.27833 27.8193
rtibia 30.1921
rfoot -11.9461 -6.611
rtoes 17.6727
lfemur 1.88459 -0.980961 -13.9659
ltibia 42.0645
lfoot 14.6969 -29.4694
ltoes -17.9305
2886
root -0.820916 17.7248 4.06365 -0.346462 30.5033 -0.886112
lowerback 4.35015 -1.59208 -1.93969
upperback -0.259568 -2.16935 1.94797
thorax -2.55806 -1.04242 3.23439
lowerneck -16.3117 -2.23055 -11.1327
upperneck 28.1435 -1.54898 5.98092
head 12.1182 -1.06448 3.95173
rclavicle -2.72087e-015 9.93923e-015
rhumerus -0.59746 -56.8254 -2.68807
rradius 86.5456
rwrist -15.5914
rhand -43.8334 5.65384
rfingers 7.12502
rthumb -16.6608 -23.6511
lclavicle -2.72087e-015 9.93923e-015
lhumerus -32.7566 56.421 -3.96867
lradius 77.1701
lwrist 29.068
lhand -22.6943 19.7618
lfingers 7.12502
lthumb 3.73829 49.7087
rfemur -18.0104 -3.99886 27.9465
rtibia 29.9767
rfoot -12.0002 -6.59165
rtoes 18.47
lfemur 1.0518 -0.474423 -13.5716
ltibia 43.4132
lfoot 11.3883 -28.3296
ltoes -19.5256
2887
root -0.797856 17.7466 4.10893 -0.31576 30.2598 -0.805156
lowerback 4.39973 -1.53649 -1.96766
upperback -0.109454 -2.09689 1.97247
thorax -2.43427 -1.00941 3.2694
lowerneck -15.728 -2.63416 -11.4778
upperneck 27.9213 -2.21796 6.37094
head 11.9907 -1.35342 4.05179
rclavicle 3.93097e-014 -8.74653e-015
rhumerus -1.24521 -56.1626 -3.30739
rradius 85.6858
rwrist -15.7086
rhand -43.2065 5.20407
rfingers 7.12502
rthumb -16.0572 -24.1506
lclavicle 3.93097e-014 -8.74653e-015
lhumerus -33.0584 55.7841 -2.58966
lradius 76.675
lwrist 29.3408
lhand -22.3252 20.4719
lfingers 7.12502
lthumb 4.09472 50.4123
rfemur -17.686 -3.72743 27.836
rtibia 29.7229
rfoot -12.1487 -6.59589
rtoes 19.7803
lfemur 0.19691 -0.0998356 -13.4276
ltibia 44.6767
lfoot 8.43661 -26.5364
ltoes -20.5991
2888
root -0.772965 17.7613 4.14829 -0.195364 29.999 -0.700365
lowerback 4.3898 -1.50887 -1.99796
upperback 0.00412322 -2.06081 2.00883
thorax -2.31182 -0.994131 3.319
lowerneck -15.0262 -3.01302 -11.973
upperneck 27.5916 -2.87694 6.94213
head 11.8072 -1.63332 4.24703
rclavicle -5.80203e-015 -3.97569e-015
rhumerus -1.56452 -55.4878 -4.2585
rradius 84.7656
rwrist -15.6055
rhand -42.7434 4.93847
rfingers 7.12502
rthumb -15.6112 -24.4516
lclavicle -5.80203e-015 -3.97569e-015
lhumerus -33.4946 55.1996 -1.27393
lradius 76.0895
lwrist 29.7797
lhand -21.9092 21.1156
lfingers 7.12502
lthumb 4.49649 51.0478
rfemur -17.4375 -3.59335 27.7341
rtibia 29.4654
rfoot -12.2571 -6.48221
rtoes 19.4898
lfemur -0.793637 0.31375 -13.3522
ltibia 45.8784
lfoot 5.16833 -24.539
ltoes -23.4618
2889
root -0.748627 17.7657 4.18649 -0.111657 29.7256 -0.633603
lowerback 4.44766 -1.51826 -1.98331
upperback 0.119353 -2.0728 2.03442
thorax -2.22425 -1.00285 3.33733
lowerneck -14.4224 -3.23374 -12.1902
upperneck 27.2552 -3.31616 7.3164
head 11.6141 -1.81109 4.35231
rclavicle -1.98536e-014 1.98785e-015
rhumerus -1.77686 -54.769 -5.45046
rradius 83.8727
rwrist -15.6199
rhand -42.2304 4.72555
rfingers 7.12502
rthumb -15.1171 -24.7024
lclavicle -1.98536e-014 1.98785e-015
lhumerus -34.0293 54.54 -0.0791581
lradius 75.4639
lwrist 30.4417
lhand -21.6458 21.7193
lfingers 7.12502
lthumb 4.75076 51.646
rfemur -17.1582 -3.56147 27.7087
rtibia 29.2235
rfoot -12.3242 -6.29503
rtoes 17.9838
lfemur -1.7959 0.801753 -13.2344
ltibia 47.0094
lfoot 2.03876 -22.3262
ltoes -25.6135
2890
root -0.724242 17.7699 4.22364 0.0531357 29.5121 -0.445383
lowerback 4.49054 -1.53668 -2.02789
upperback 0.216663 -2.10152 1.98993
thorax -2.14606 -1.01935 3.31737
lowerneck -13.8555 -3.3926 -12.12
upperneck 26.9716 -3.66807 7.44986
head 11.4315 -1.95115 4.33162
rclavicle 1.36664e-014 -1.31198e-014
rhumerus -2.00635 -54.0518 -6.73956
rradius 82.9772
rwrist -15.7301
rhand -41.3717 4.29417
rfingers 7.12502
rthumb -14.2898 -25.1941
lclavicle 1.36664e-014 -1.31198e-014
lhumerus -34.4999 53.7483 1.18026
lradius 74.796
lwrist 31.3278
lhand -21.5477 22.3788
lfingers 7.12502
lthumb 4.84548 52.3034
rfemur -16.9208 -3.59152 27.5598
rtibia 28.9809
rfoot -12.3072 -6.1343
rtoes 17.1288
lfemur -2.8149 1.22473 -13.2601
ltibia 48.0255
lfoot -0.690267 -19.9311
ltoes -26.3499
2891
root -0.700208 17.7803 4.26024 0.141026 29.231 -0.422043
lowerback 4.55411 -1.51959 -1.93652
upperback 0.288632 -2.07516 1.97455
thorax -2.11324 -1.00836 3.24905
lowerneck -13.1627 -3.5005 -11.97
upperneck 26.6243 -3.99137 7.63632
head 11.1956 -2.06665 4.32142
rclavicle 2.26118e-015 8.34896e-015
rhumerus -2.35173 -53.3341 -7.94299
rradius 82.0656
rwrist -15.8516
rhand -40.2236 3.5407
rfingers 7.12502
rthumb -13.1833 -26.0225
lclavicle 2.26118e-015 8.34896e-015
lhumerus -34.7766 53.0486 2.65023
lradius 73.9878
lwrist 32.1453
lhand -21.1844 22.9836
lfingers 7.12502
lthumb 5.19633 52.8999
rfemur -16.7248 -3.50739 27.5493
rtibia 28.7477
rfoot -12.1854 -6.00292
rtoes 16.774
lfemur -3.84769 1.67673 -13.1488
ltibia 48.8788
lfoot -2.92027 -18.0527
ltoes -26.7674
2892
root -0.675768 17.797 4.30073 0.199789 28.9503 -0.446694
lowerback 4.60029 -1.53548 -1.84038
upperback 0.360089 -2.09069 2.02428
thorax -2.06602 -1.01821 3.24724
lowerneck -12.5681 -3.67262 -12.0211
upperneck 26.3822 -4.34021 7.81176
head 11.031 -2.21755 4.34277
rclavicle 2.33324e-014 1.98785e-015
rhumerus -2.59344 -52.4408 -9.17568
rradius 81.087
rwrist -15.9233
rhand -39.5161 2.97051
rfingers 7.12502
rthumb -12.5013 -26.6356
lclavicle 2.33324e-014 1.98785e-015
lhumerus -35.2037 52.3906 4.12588
lradius 73.1506
lwrist 32.9383
lhand -20.7556 23.7258
lfingers 7.12502
lthumb 5.61028 53.6315
rfemur -16.538 -3.3545 27.5631
rtibia 28.5305
rfoot -12.07 -5.92566
rtoes 16.4142
lfemur -4.83339 2.06306 -12.9985
ltibia 49.5241
lfoot -4.31601 -16.4402
ltoes -25.7214
